<?xml version="1.0" encoding="UTF-8"?>
<svg id="Layer_1" xmlns="http://www.w3.org/2000/svg" width="100" height="100" version="1.1" viewBox="0 0 100 100">
  <!-- Generator: Adobe Illustrator 29.0.1, SVG Export Plug-In . SVG Version: 2.1.0 Build 192)  -->
  <defs>
    <style>
      .st0 {
        fill: #4e454a;
      }

      .st1 {
        fill: #484848;
      }
    </style>
  </defs>
  <path class="st0" d="M63.9,40.5h-9.7v-19.4h9.4c4,0,6.6,2.2,6.6,5.5s-.6,3-1.7,3.9c1.3.9,2,2.4,2,4.1,0,3.5-2.6,5.8-6.6,5.8M69.7,47.7h-9.5v1.9h8.5v5.2h-8.5v1.8h9.5v5.2h-15.5v-19.4h15.5v5.2ZM69.7,69.4h-5.1v12.3h-5.2v-12.3h-5.1v-5.6h15.5v5.6h0ZM62,12c-16,0-29.8,9.9-35.3,24V13.8H0v72.5h26.6v-22.2c5.6,14.1,19.3,24,35.3,24s38-17,38-38S83,12,62,12"/>
  <path class="st1" d="M63,33.1h-2.8v2.4h2.8c1.3,0,1.4-.7,1.4-1.3,0-1-1-1.1-1.4-1.1"/>
  <path class="st1" d="M64.2,27.1c0-.3,0-1.1-1.5-1.1h-2.5v2.2h2.5c1.5,0,1.5-.8,1.5-1.1"/>
</svg>