<svg width="159" height="83" viewBox="0 0 159 83" fill="none" xmlns="http://www.w3.org/2000/svg">
<path d="M156.481 52.9764H55.4425C41.9972 44.1613 22.9457 35.3941 22.9457 23.4864C22.9457 16.798 32.7677 10.6062 46.689 6.90751C69.4221 0.866364 83.3024 9.89042 63.3159 16.7295C60.3262 17.7535 61.8638 22.233 64.8502 21.2124C70.6858 19.2158 80.4017 14.3391 76.9016 6.32532C75.0249 2.03076 68.7988 0.133482 61.059 0.136906C43.5178 0.136906 18.2059 9.87329 18.2059 23.4898C18.2059 35.2673 30.3053 43.24 42.7027 50.5962C43.6856 51.1784 45.4356 52.199 47.5213 53.4867C31.8293 54.8189 0.599609 59.1203 0.599609 70.4081C0.599609 80.8671 27.4868 82.3294 33.3088 82.3294C41.4082 82.3294 68.4426 81.1958 68.4426 67.9628C68.4426 64.3464 65.8639 60.9799 61.9323 57.6888H156.485C157.7 57.6888 158.687 56.7025 158.687 55.4867V55.1819C158.687 53.9661 157.7 52.9798 156.485 52.9798L156.481 52.9764ZM33.3054 77.5862C23.9115 77.5862 16.61 76.3019 11.7401 74.5656C6.32569 72.6375 5.33253 70.7197 5.33253 70.4046C5.33253 67.319 17.4867 63.4765 19.3018 62.9559C30.0553 59.8771 41.9561 58.2812 54.1549 57.8223C59.1207 61.3155 63.6995 65.2539 63.6995 67.956C63.6995 76.6239 37.8705 77.5828 33.3054 77.5828V77.5862Z" fill="white"/>
<path d="M128.056 45.7025C128.683 46.2881 129.446 46.7504 130.354 47.0895C131.258 47.4285 132.306 47.5963 133.501 47.5963C134.039 47.5963 134.556 47.5449 135.053 47.4456C135.549 47.3463 136.011 47.2264 136.44 47.086C136.868 46.9456 137.255 46.7984 137.604 46.6374C137.953 46.4799 138.244 46.3292 138.484 46.1888C139.142 45.8497 139.34 45.3052 139.08 44.5483L138.871 43.9833C138.594 43.2093 138.056 43.0107 137.262 43.3874C136.844 43.6066 136.327 43.8257 135.71 44.0449C135.094 44.2641 134.426 44.3737 133.714 44.3737C132.638 44.3737 131.796 44.1066 131.179 43.5689C130.563 43.0312 130.203 42.3463 130.104 41.5106C130.005 41.0723 129.984 40.6374 130.046 40.199H139.292C140.087 40.199 140.604 39.9113 140.844 39.3325C140.922 39.0928 140.988 38.8223 141.039 38.5106C141.087 38.2024 141.114 37.8805 141.114 37.5414C141.114 36.7058 140.984 35.925 140.727 35.1989C140.47 34.4729 140.087 33.853 139.58 33.3359C139.073 32.8188 138.433 32.4113 137.655 32.1133C136.881 31.8154 135.984 31.6647 134.97 31.6647C133.696 31.6647 132.525 31.9147 131.45 32.4113C130.374 32.9078 129.446 33.5791 128.662 34.425C127.878 35.2709 127.265 36.264 126.826 37.4079C126.388 38.5517 126.169 39.7709 126.169 41.062C126.169 41.9764 126.326 42.8326 126.645 43.6271C126.963 44.4216 127.436 45.1134 128.063 45.699L128.056 45.7025ZM132.289 35.4284C133.053 34.8325 133.926 34.5346 134.898 34.5346C135.614 34.5346 136.207 34.7537 136.672 35.1921C137.138 35.6305 137.375 36.2675 137.375 37.0996C137.375 37.199 137.371 37.2949 137.361 37.3839C137.351 37.4729 137.347 37.5586 137.347 37.6373C137.327 37.7161 137.316 37.8051 137.316 37.9044H130.577C130.953 36.8496 131.525 36.0243 132.292 35.4284H132.289Z" fill="white"/>
<path d="M144.306 46.3429C144.796 46.7812 145.371 47.0997 146.039 47.2984C146.703 47.497 147.375 47.5963 148.053 47.5963C148.57 47.5963 148.971 47.5073 149.262 47.3429C149.546 47.1717 149.741 46.86 149.844 46.4011L150.022 45.4764C150.118 45.0621 150.09 44.7538 149.929 44.5552C149.772 44.3566 149.464 44.2367 149.008 44.1956C148.751 44.1785 148.488 44.1203 148.217 44.0312C147.95 43.9422 147.714 43.7949 147.515 43.5826C147.316 43.3737 147.173 43.0997 147.084 42.747C146.994 42.4011 147.001 41.9353 147.101 41.36L148.262 35.4558H150.498C151.337 35.4558 151.82 35.0688 151.964 34.2914L152.053 33.7572C152.155 33.3565 152.111 33.038 151.933 32.8017C151.755 32.5619 151.467 32.4421 151.066 32.4421H148.83L149.457 29.3393C149.46 29.3153 149.464 29.2914 149.467 29.2674L150.005 26.5996C150.162 25.7639 149.827 25.3461 148.991 25.3461H147.799C146.984 25.3461 146.488 25.7639 146.31 26.5996L145.779 29.2503V29.2606C145.768 29.2845 145.762 29.3119 145.758 29.3393L145.703 29.6236L145.693 29.6818L145.162 32.4421L144.474 35.4558L143.193 42.0175C142.994 43.0483 143.008 43.9216 143.234 44.6271C143.464 45.3326 143.823 45.9045 144.31 46.3429H144.306Z" fill="white"/>
<path d="M71.9805 40.5312C72.1757 39.5552 72.4497 38.5826 72.6962 37.788C72.9497 37.1545 73.1791 36.4901 73.3812 35.7914C74.1517 33.151 70.6174 31.9524 69.6277 34.5175C69.4668 34.9318 69.2339 35.5688 68.9873 36.3428C64.6859 46.7504 51.6858 47.0861 59.6311 34.7846C60.6379 33.2263 59.292 31.6989 57.905 31.6989C57.3194 31.6989 56.7235 31.9729 56.2988 32.6339C47.1892 46.7367 59.7064 52.0553 68.0558 44.6134C68.4633 46.0415 69.4291 47.0278 71.3298 47.0278C76.4839 47.0278 79.0216 41.8942 82.9806 39.675C82.8539 41.5278 81.0319 47.1991 84.6415 47.1991C87.6827 47.1991 89.5286 39.997 93.3094 39.997C96.4807 39.997 97.0081 47.6169 101.042 47.6169C103.673 47.6169 105.96 45.9662 107.642 44.1134C107.854 43.9285 108.107 43.6956 108.399 43.3942C108.923 44.5312 109.758 45.6032 110.669 46.1751C110.758 46.2367 110.847 46.2984 110.943 46.3566C112.491 47.3224 114.084 47.473 114.878 47.5484C114.977 47.5587 115.053 47.5621 115.121 47.5655L115.272 47.5758H115.347C115.412 47.5826 115.471 47.5861 115.515 47.5861C115.601 47.5895 115.645 47.5895 115.645 47.5895C116.659 47.5895 117.662 47.3566 118.645 46.8874C119.628 46.4217 120.508 45.771 121.286 44.9354C122.06 44.0997 122.69 43.1032 123.166 41.9388C123.642 40.7744 123.882 39.4867 123.882 38.0757C123.882 37.0997 123.748 36.2161 123.481 35.4216C123.214 34.627 122.834 33.949 122.347 33.3942C121.858 32.8394 121.265 32.4113 120.56 32.1099C119.854 31.812 119.063 31.6647 118.19 31.6647C117.135 31.6647 116.21 31.8942 115.416 32.3496C114.621 32.8085 113.974 33.3942 113.477 34.1099H113.416C113.457 33.9695 113.495 33.8222 113.532 33.6613C113.573 33.5243 113.608 33.3839 113.638 33.2435C113.666 33.1065 113.703 32.9661 113.741 32.8257L113.991 31.5106L114.399 29.3496L114.786 27.3085C114.799 27.2434 114.806 27.1886 114.813 27.1304L115.289 24.6098C115.474 23.7468 115.135 23.3153 114.272 23.3153H112.947C112.084 23.3153 111.58 23.7502 111.402 24.6098C111.217 25.5208 110.864 27.1886 110.563 28.5928C110.536 28.7195 110.505 28.8496 110.474 28.99C109.827 32.0448 107.964 38.223 104.087 42.0689C104.063 42.0894 104.049 42.1134 104.029 42.134C103.289 42.8429 102.299 43.6203 101.532 43.6203C100.405 43.6203 98.9602 36.0209 93.4841 36.0209C90.2135 36.0209 88.3916 37.7504 86.7922 39.7538C86.9464 37.5141 86.5251 35.4764 83.5422 35.4764C79.3744 35.4764 75.2065 42.6031 71.7579 43.0758C71.686 42.5244 71.7579 41.634 71.9805 40.5209V40.5312ZM113.782 36.9661C114.2 36.449 114.679 36.038 115.224 35.7366C115.769 35.4319 116.354 35.2812 116.984 35.2812C117.834 35.2812 118.512 35.5688 119.008 36.1373C119.508 36.7093 119.758 37.5209 119.758 38.5723C119.758 39.4011 119.625 40.1545 119.354 40.8257C119.087 41.5004 118.738 42.0792 118.313 42.5655C117.888 43.0552 117.399 43.4285 116.844 43.6853C116.289 43.9422 115.734 44.0723 115.179 44.0723C114.234 44.0723 113.542 43.7675 113.097 43.1579C112.652 42.5518 112.429 41.7778 112.429 40.836C112.429 40.0997 112.553 39.3976 112.789 38.7333C113.029 38.0689 113.358 37.4798 113.775 36.9627L113.782 36.9661Z" fill="white"/>
</svg>
