<svg xmlns="http://www.w3.org/2000/svg" id="Layer_2" data-name="Layer 2" viewBox="0 0 798.24 192.54"><metadata></metadata><defs><style>      .cls-1 {        fill: #fff;        stroke-width: 0px;      }    </style></defs><g><path class="cls-1" d="m433.81,95.41c-6.58,0-12.91-1.16-18.75-4.3-9.7-5.21-14.95-13.4-15.98-24.34-.44-4.72.06-9.34,1.6-13.81,2.59-7.52,7.51-13.07,14.53-16.74,10.94-5.71,26.04-5.75,36.96.02,9.2,4.86,14.82,12.47,16.34,22.79,2.09,14.19-4.87,27.17-18.42,33.16-4.94,2.18-10.24,3.21-16.28,3.22Zm22.34-31.43c-.32-2.84-.5-5.7-.98-8.51-.75-4.32-2.32-8.34-5.01-11.87-6.42-8.43-18.99-11.45-28.93-3.42-3.96,3.2-6.39,7.39-7.83,12.21-1.85,6.19-2,12.48-1,18.82.6,3.8,1.78,7.4,3.76,10.72,5.37,8.96,16.2,12.6,25.86,8.62,5.93-2.45,9.6-7.02,11.75-12.93,1.6-4.4,2.11-8.98,2.37-13.64Z"></path><path class="cls-1" d="m281.64,95.41c-7.21,0-13.31-1.1-18.99-3.99-9.27-4.72-14.78-12.24-16.34-22.55-.92-6.06-.34-11.98,2.01-17.67,3.13-7.56,8.59-12.93,16.09-16.01,10.7-4.39,21.59-4.55,32.29-.08,9.55,3.99,15.87,11.08,18.27,21.28,3.7,15.7-4.3,30.62-19.38,36.4-4.77,1.83-9.72,2.67-13.95,2.62Zm21.34-32.39c-.13-1.38-.24-3.76-.58-6.12-.65-4.48-2.01-8.74-4.67-12.47-3.95-5.54-9.31-8.63-16.16-8.91-5.75-.23-10.6,1.98-14.73,5.86-3.24,3.05-5.25,6.87-6.5,11.1-1.8,6.1-1.94,12.3-.98,18.55.62,4.09,1.89,7.97,4.15,11.47,5.06,7.85,14.37,11.41,23.31,8.81,6.7-1.95,11.07-6.48,13.62-12.87,1.85-4.63,2.4-9.49,2.54-15.43Z"></path><path class="cls-1" d="m384.4,34.92c.23,3.62.44,6.97.67,10.6-.57-.46-.93-.74-1.28-1.03-5.28-4.37-11.21-7.44-18.04-8.38-8.81-1.21-16.15,1.72-21.93,8.43-3.53,4.09-5.36,8.95-5.98,14.29-.66,5.72-.29,11.34,1.78,16.75,3.54,9.26,10.36,14.46,20.12,15.85,5.08.73,10.08.3,14.96-1.31.49-.16.97-.36,1.56-.58v-23.97c1.23-.31,10.93-.35,12.41-.06.03.39.07.81.07,1.23,0,6.58-.03,13.16,0,19.73,0,.96-.35,1.44-1.13,1.9-6.55,3.88-13.62,6.08-21.2,6.75-3.85.34-7.71.48-11.56-.04-5.73-.77-11.18-2.46-16.11-5.5-7.23-4.45-11.47-11.03-13.1-19.28-1.24-6.26-.89-12.44,1.51-18.4,3.1-7.69,8.75-12.92,16.22-16.29,5.2-2.35,10.7-3.43,16.37-3.6,6.2-.19,12.39.11,18.49,1.36,2.04.42,4.05,1.02,6.14,1.56Z"></path><path class="cls-1" d="m234.38,35.03c.21,3.41.42,6.8.64,10.49-.62-.5-.98-.79-1.33-1.09-4.89-4.06-10.41-6.85-16.65-8.13-3.07-.63-6.15-.75-9.2.15-.68.2-1.36.45-2,.76-3.83,1.83-5.23,5.04-4.03,9.1.49,1.63,1.37,3.03,2.54,4.25,1.63,1.71,3.55,3.05,5.66,4.08,3.21,1.56,6.5,2.95,9.72,4.5,3.13,1.51,6.28,3,9.28,4.73,1.71.99,3.26,2.33,4.67,3.73,5.97,5.88,5.65,16.98-1.55,22.4-3.08,2.31-6.55,3.66-10.26,4.48-4.84,1.07-9.74,1.11-14.65.72-5.48-.43-10.87-1.34-16.12-3-.9-.29-2.03-.47-2.57-1.11-.48-.57-.31-1.71-.37-2.6-.18-2.89-.34-5.78-.53-9.03.44.49.66.7.84.94,4.64,6.15,10.96,9.44,18.42,10.75,3.56.62,7.11.74,10.62-.29,1.05-.3,2.09-.7,3.05-1.2,3.83-2,5.41-5.46,4.5-9.69-.53-2.46-1.8-4.49-3.61-6.21-1.95-1.86-4.21-3.29-6.63-4.43-3.19-1.5-6.45-2.85-9.64-4.33-2.72-1.26-5.46-2.51-8.07-3.97-1.65-.92-3.19-2.11-4.58-3.39-5.77-5.3-5.13-14.25.2-19.08,2.94-2.66,6.44-4.2,10.21-5.21,4.08-1.09,8.25-1.5,12.46-1.39,5.83.15,11.59.8,17.2,2.49.54.16,1.08.34,1.76.56Z"></path><path class="cls-1" d="m498.71,91.21c-.22-3.84-.43-7.57-.64-11.3.09-.03.17-.06.26-.09.21.22.43.43.62.68,4.59,6.05,10.84,9.3,18.18,10.63,3.26.59,6.54.76,9.8,0,1.15-.27,2.3-.63,3.38-1.12,4.66-2.12,6.35-5.99,4.87-11.09-.6-2.07-1.84-3.75-3.4-5.21-1.93-1.82-4.14-3.22-6.52-4.34-3.19-1.5-6.44-2.86-9.64-4.33-2.64-1.22-5.3-2.41-7.83-3.82-1.69-.94-3.28-2.14-4.73-3.43-5.89-5.25-5.28-14.34.06-19.18,2.94-2.66,6.44-4.21,10.21-5.22,4.08-1.09,8.24-1.5,12.46-1.39,5.88.15,11.69.82,17.34,2.52.5.15.99.32,1.63.53.21,3.37.43,6.73.64,10.13-.69.09-.93-.41-1.26-.68-4.89-4.06-10.4-6.87-16.64-8.16-3.12-.65-6.25-.8-9.33.16-1.08.34-2.15.81-3.11,1.41-2.63,1.64-3.68,4.19-3.13,7.25.38,2.13,1.38,3.94,2.87,5.49,1.4,1.45,3.01,2.67,4.8,3.57,3.02,1.51,6.1,2.9,9.16,4.35,3.01,1.43,6.05,2.8,9.02,4.31,2.34,1.2,4.41,2.8,6.29,4.67,5.97,5.95,5.72,17.17-1.7,22.61-3.02,2.21-6.41,3.53-10.02,4.33-4.84,1.07-9.74,1.12-14.65.74-5.48-.43-10.87-1.33-16.12-2.99-.91-.29-1.79-.63-2.85-1.01Z"></path><path class="cls-1" d="m630.34,52.51v41.33h-4.86V31.42c3.95,3.57,7.66,7.15,11.43,10.68,3.79,3.55,7.57,7.11,11.36,10.67,3.79,3.56,7.57,7.12,11.36,10.67,3.77,3.54,7.54,7.08,11.57,10.86v-40.78c1.72-.11,3.31-.11,4.98,0v61.12c-15.33-14.2-30.44-28.25-45.57-42.27-.09.04-.18.09-.27.13Z"></path><path class="cls-1" d="m558.87,33.54h11.92v1.7c0,12.25,0,24.5,0,36.75,0,2.92.35,5.79,1.31,8.57,2.5,7.23,8.19,11.02,15.82,10.45,1.47-.11,2.95-.29,4.38-.63,6.43-1.52,10.24-5.72,11.97-11.97.84-3.02.98-6.1.98-9.21,0-11.3,0-22.59,0-33.89v-1.78h4.89c.03.47.09.88.09,1.3,0,11.87,0,23.74,0,35.6,0,3.26-.43,6.47-1.47,9.56-2.44,7.27-7.37,12.03-14.72,14.15-6.03,1.74-12.16,1.77-18.22.19-8.76-2.28-14.03-8.04-16.14-16.77-.65-2.7-.88-5.45-.88-8.22,0-11.49,0-22.97,0-34.46,0-.42.04-.84.06-1.35Z"></path><path class="cls-1" d="m157.68,93.88h-12v-55.99c-8.01.8-15.81,1.58-23.81,2.37-.07-2.31-.04-4.47-.02-6.72h59.7v6.68c-7.94-.67-15.77-1.6-23.83-2.32-.11,1.76-.04,3.46-.05,5.15-.01,1.67,0,3.34,0,5v20.3c0,1.72,0,3.43,0,5.15s0,3.34,0,5c0,1.72,0,3.43,0,5.15v10.22Z"></path></g><g><path class="cls-1" d="m285.36,136.55v23.77c-1.17.33-4.98.37-6.56.1v-36.01c1.02-.02,2.06.07,3.07-.07,1.76-.25,2.84.5,3.93,1.86,5.65,7.08,11.4,14.07,17.12,21.09.32.39.66.77,1.16,1.35.28-1.82.11-3.41.14-5,.03-1.57,0-3.15,0-4.72v-9.58c0-1.61,0-3.21,0-4.89h6.61v35.99c-1.26.32-2.55.03-3.8.17-1.16.13-1.91-.3-2.64-1.22-5.83-7.24-11.72-14.43-17.59-21.63-.36-.44-.73-.86-1.1-1.29-.11.03-.22.06-.33.09Z"></path><path class="cls-1" d="m531.74,142.23c.02,9.98-6.54,16.57-14.65,18.32-5.25,1.13-10.35.61-15.11-2.02-6.63-3.66-10.03-10.79-9.13-18.45,1.05-9.05,8.3-15.35,17.04-16.12,4.33-.38,8.48.18,12.31,2.3,5.67,3.14,8.83,7.96,9.42,14.44.05.52.08,1.05.12,1.53Zm-32.26.23c0,7.38,5.34,12.74,12.7,12.75,7.35.01,12.78-5.36,12.81-12.69.03-7.39-5.41-12.83-12.82-12.82-7.36,0-12.69,5.37-12.69,12.76Z"></path><path class="cls-1" d="m361.5,142.44c.02,9.74-7.06,17.5-16.79,18.48-5.05.51-9.83-.22-14.08-3.09-6.24-4.21-8.75-10.25-8.01-17.64.92-9.16,8.28-15.47,17.06-16.24,2.94-.26,5.81-.07,8.63.78,8.06,2.41,13.17,9.3,13.19,17.71Zm-32.26.06c.01,7.36,5.37,12.72,12.74,12.72,7.34,0,12.76-5.39,12.77-12.72.01-7.4-5.41-12.8-12.85-12.79-7.34.02-12.68,5.41-12.67,12.79Z"></path><path class="cls-1" d="m481.04,160.49c-.43.03-.8.09-1.17.09-1.75,0-3.51,0-5.43,0v-15.44h-18.71c-.15,5.08.02,10.15-.09,15.33h-6.46c-.32-.95-.47-32.96-.13-36.09,2.13-.07,4.29-.03,6.62-.02v14.85h18.73v-14.78h6.63v36.06Z"></path><path class="cls-1" d="m585.25,139.39h17.18v5.45h-17.06c-.38,1.09-.49,7.74-.18,10.08,3.33.08,6.69.02,10.06.03,3.33,0,6.66,0,10.12,0,.21,1.89.1,3.67.09,5.53h-26.83c-.36-1.01-.41-34.65-.04-36.08h26.08v5.52h-19.34c-.35,1.2-.39,7.89-.08,9.46Z"></path><path class="cls-1" d="m211.75,160.54h-6.92c-.19-.37-.39-.74-.56-1.12-.86-1.96-1.76-3.91-2.54-5.91-.38-.99-.91-1.36-2-1.34-3.19.07-6.39.03-9.58.03-1.86,0-3.72.08-5.58-.03-1.25-.07-1.87.37-2.29,1.55-.67,1.88-1.54,3.69-2.32,5.53-.18.43-.39.85-.58,1.27h-6.85c5.45-12.11,10.83-24.08,16.24-36.09h6.67c5.38,11.9,10.8,23.91,16.31,36.11Zm-19.52-29.11c-.12,0-.24.01-.36.02-2.18,5.09-4.35,10.18-6.59,15.4h13.59c-2.26-5.24-4.45-10.33-6.65-15.42Z"></path><path class="cls-1" d="m245.16,127.08c-.71,1.74-1.37,3.36-2.08,5.09-.56-.27-1.02-.5-1.49-.72-3.76-1.77-7.67-2.54-11.8-1.75-1.14.22-2.2.63-3.09,1.4-2.19,1.89-2.02,4.85.43,6.37.8.5,1.7.88,2.6,1.14,2.47.71,4.97,1.3,7.44,2.01,1.37.39,2.74.84,4.04,1.42,7.74,3.45,6.4,12.73,1.61,16.06-2.08,1.45-4.36,2.35-6.84,2.7-5.11.73-10.08.13-14.81-1.96-1.16-.51-2.22-1.25-3.44-1.95.81-1.84,1.56-3.51,2.31-5.22,1.08.62,2.01,1.21,2.98,1.69,3.96,1.93,8.12,2.67,12.49,1.85,1.19-.22,2.29-.66,3.21-1.47,1.93-1.7,1.85-4.4-.25-5.88-.8-.57-1.74-1.01-2.68-1.3-2.41-.73-4.87-1.3-7.3-2-1.46-.42-2.94-.84-4.32-1.47-2.71-1.24-4.82-3.1-5.41-6.2-.83-4.41.72-8.21,4.23-10.44,1.23-.78,2.61-1.44,4.01-1.81,5.38-1.43,10.66-.98,15.81,1.12.57.23,1.11.55,1.65.84.21.11.39.27.69.48Z"></path><path class="cls-1" d="m647.54,156.68c.73-1.65,1.46-3.29,2.24-5.04.51.31.9.55,1.29.79,4.37,2.61,9.05,3.68,14.11,2.79,1.19-.21,2.3-.63,3.22-1.44,2-1.74,1.91-4.47-.27-5.98-.77-.53-1.66-.96-2.56-1.23-2.42-.72-4.87-1.3-7.3-2-1.42-.41-2.84-.84-4.2-1.39-8.05-3.31-6.86-12.83-2.01-16.31,1.94-1.39,4.06-2.26,6.4-2.66,4.61-.78,9.11-.37,13.48,1.31.97.37,1.87.91,2.95,1.43-.7,1.76-1.37,3.41-2.09,5.22-.54-.26-.99-.49-1.44-.7-3.75-1.79-7.66-2.57-11.8-1.79-1.29.24-2.47.71-3.41,1.66-1.88,1.88-1.68,4.55.52,6,.82.54,1.77.96,2.71,1.24,2.14.64,4.33,1.12,6.48,1.75,1.64.48,3.31.94,4.87,1.63,2.67,1.18,4.79,2.99,5.41,6.03.88,4.34-.62,8.01-3.91,10.31-1.95,1.37-4.14,2.15-6.48,2.49-5.11.74-10.07.14-14.82-1.92-1.22-.53-2.4-1.15-3.41-2.19Z"></path><path class="cls-1" d="m397.44,126.99c-.73,1.79-1.39,3.42-2.09,5.16-.51-.24-.92-.43-1.34-.63-3.79-1.82-7.75-2.63-11.94-1.83-1.19.23-2.29.65-3.2,1.48-2.11,1.91-1.92,4.77.49,6.28.8.5,1.7.89,2.6,1.15,2.47.72,4.97,1.31,7.45,2.01,1.24.35,2.48.71,3.65,1.24,2.65,1.2,4.81,2.91,5.58,5.92,1.05,4.12-.51,8.28-4.03,10.65-1.85,1.25-3.9,2-6.09,2.33-5.36.82-10.55.18-15.49-2.1-.69-.32-1.33-.74-1.98-1.14-.32-.2-.59-.46-.99-.78.74-1.66,1.46-3.3,2.25-5.08.48.29.87.52,1.25.76,4.37,2.63,9.05,3.7,14.12,2.82,1.19-.21,2.3-.63,3.23-1.42,2.01-1.7,1.94-4.48-.22-5.98-.81-.56-1.75-1-2.69-1.28-2.37-.71-4.78-1.29-7.17-1.96-1.19-.33-2.36-.74-3.54-1.12-.36-.12-.71-.27-1.06-.43-7.63-3.52-6.33-12.57-1.85-15.98,1.98-1.51,4.19-2.43,6.63-2.84,4.81-.8,9.5-.36,14.02,1.53.78.33,1.52.78,2.42,1.24Z"></path><path class="cls-1" d="m163.24,151c1.31,1.24,2.55,2.42,3.78,3.61.13.13.22.29.36.47-1.12,1.44-2.51,2.5-4.03,3.4-2.81,1.66-5.89,2.42-9.12,2.57-3.83.18-7.52-.46-10.9-2.33-6.04-3.34-9.23-8.52-9.51-15.41-.28-6.79,2.29-12.26,7.93-16.15,3.79-2.61,8.08-3.52,12.63-3.3,3.09.15,6.03.88,8.73,2.41,1.62.92,3.07,2.06,4.36,3.6-1.43,1.35-2.81,2.65-4.29,4.04-3.19-3.32-7.06-4.66-11.55-4.12-3.29.4-6.12,1.77-8.27,4.35-4.12,4.95-3.75,12.87.7,17.41,3.83,3.9,12.64,5.97,19.17-.57Z"></path><path class="cls-1" d="m568.74,124.5v5.47h-11.86c-.16,3.52-.06,6.88-.08,10.25-.02,3.33,0,6.67,0,10.01s0,6.76,0,10.25h-6.6v-30.4h-11.92v-5.5c.98-.27,28.42-.35,30.47-.06Z"></path><path class="cls-1" d="m643.05,154.9v5.42c-1,.33-22.12.47-25.34.17-.31-.99-.45-33.22-.13-36.11,2.13-.08,4.28-.03,6.61-.03v30.55h18.87Z"></path><path class="cls-1" d="m257.88,124.43c.32-.03.55-.08.78-.08,1.86,0,3.71,0,5.73,0,.26,3.04.09,6.01.12,8.98.03,3.05,0,6.1,0,9.15v9c0,2.99,0,5.98,0,9.01h-6.64v-36.07Z"></path><path class="cls-1" d="m426.61,156.64c0,2.48-1.77,4.27-4.2,4.27-2.43,0-4.2-1.81-4.2-4.28,0-2.49,1.76-4.26,4.21-4.26,2.45,0,4.19,1.78,4.19,4.27Z"></path></g></svg>